<?xml version="1.0" encoding="UTF-8" standalone="no"?>
<!-- Created with Inkscape (http://www.inkscape.org/) -->

<svg
   width="80mm"
   height="80mm"
   viewBox="0 0 80.000004 79.999999"
   version="1.1"
   id="svg5405"
   inkscape:version="1.2.2 (b0a8486541, 2022-12-01)"
   sodipodi:docname="ae30-logo-icon.svg"
   inkscape:export-filename="exports/ae30-logo-export.svg"
   inkscape:export-xdpi="96"
   inkscape:export-ydpi="96"
   xmlns:inkscape="http://www.inkscape.org/namespaces/inkscape"
   xmlns:sodipodi="http://sodipodi.sourceforge.net/DTD/sodipodi-0.dtd"
   xmlns="http://www.w3.org/2000/svg"
   xmlns:svg="http://www.w3.org/2000/svg">
  <sodipodi:namedview
     id="namedview5407"
     pagecolor="#ffffc0"
     bordercolor="#000000"
     borderopacity="0.25"
     inkscape:showpageshadow="2"
     inkscape:pageopacity="1"
     inkscape:pagecheckerboard="0"
     inkscape:deskcolor="#d1d1d1"
     inkscape:document-units="mm"
     showgrid="false"
     inkscape:zoom="2.5852252"
     inkscape:cx="176.77377"
     inkscape:cy="172.32541"
     inkscape:window-width="2516"
     inkscape:window-height="1372"
     inkscape:window-x="1940"
     inkscape:window-y="44"
     inkscape:window-maximized="1"
     inkscape:current-layer="layer1" />
  <defs
     id="defs5402" />
  <g
     inkscape:label="Layer 1"
     inkscape:groupmode="layer"
     id="layer1"
     transform="translate(-34.58004,-26.48991)">
    <rect
       style="font-variation-settings:'wght' 700;fill:#ffffff;fill-rule:evenodd;stroke-width:0.180871;stroke-linejoin:round;-inkscape-stroke:none;stop-color:#000000"
       id="rect1889"
       width="80"
       height="80"
       x="49.596958"
       y="124.81451" />
    <circle
       style="font-variation-settings:'wght' 700;fill:#ffffff;fill-rule:evenodd;stroke-width:0.268416;stroke-linejoin:round;-inkscape-stroke:none;stop-color:#000000"
       id="path2224"
       cx="74.58004"
       cy="66.489906"
       r="40" />
    <g
       id="g1949"
       transform="matrix(0.89166392,0,0,0.89166392,-7.2415974,-3.2006628)">
      <path
         d="M 0,0 H 20.346 V -5.999 H 0 -6.213 V 30.139 H 19.381 L 20.346,24.3 H 0 V 15.998 H 16.381 V 9.999 H 0 Z"
         style="display:inline;fill:#1c1d1d;fill-opacity:1;fill-rule:nonzero;stroke:none"
         id="path5693"
         transform="matrix(0.86566314,0,0,-0.86566306,100.66258,71.175197)" />
      <path
         d="m 0,0 h -9.579 l -13.356,-36.138 h 6.499 0.058 l 3.154,8.535 H 3.645 l 3.154,-8.535 h 0.057 6.498 z m -10.998,-21.581 6.208,16.8 6.209,-16.8 z"
         style="display:inline;fill:#1c1d1d;fill-opacity:1;fill-rule:nonzero;stroke:none"
         id="path5697"
         transform="matrix(0.86566314,0,0,-0.86566306,83.001106,45.085325)" />
      <path
         d="M 0,0 C -0.601,1.259 -1.397,2.325 -2.367,3.171 -3.335,4.016 -4.472,4.65 -5.744,5.058 -6.428,5.275 -7.122,5.433 -7.818,5.537 l 8.314,9.242 v 6.017 h -27.299 l 0.993,-6.017 h 17.102 l -7.152,-7.975 0.01,-5.902 h 3.76 c 1.92,0 3.54,-0.454 4.814,-1.35 1.349,-0.952 2.033,-2.456 2.033,-4.471 0,-1.862 -0.619,-3.394 -1.84,-4.551 -1.211,-1.147 -2.935,-1.728 -5.124,-1.728 -2.551,0 -4.508,0.75 -5.819,2.228 -1.288,1.453 -1.94,3.199 -1.94,5.191 v 1.363 h -6.146 V -4.12 c 0,-1.726 0.328,-3.381 0.972,-4.923 0.645,-1.544 1.584,-2.927 2.786,-4.108 1.202,-1.185 2.687,-2.132 4.414,-2.816 1.739,-0.686 3.708,-1.035 5.85,-1.035 2.108,0 4.003,0.311 5.628,0.925 1.612,0.609 2.981,1.451 4.069,2.502 1.08,1.044 1.906,2.294 2.458,3.716 0.556,1.434 0.838,3.02 0.838,4.712 v 0.684 C 0.903,-2.752 0.6,-1.25 0,0"
         style="display:inline;fill:#1c1d1d;fill-opacity:1;fill-rule:nonzero;stroke:none"
         id="path5709"
         transform="matrix(0.86566314,0,0,-0.86566306,86.349577,96.512808)" />
      <path
         d="m 0,0 c 6.622,0 12.008,-5.574 12.008,-12.426 0,-6.852 -5.386,-12.427 -12.008,-12.427 -6.621,0 -12.008,5.575 -12.008,12.427 C -12.008,-5.574 -6.621,0 0,0 m 0,6.545 c -10.246,0 -18.553,-8.494 -18.553,-18.971 0,-10.478 8.307,-18.972 18.553,-18.972 10.247,0 18.553,8.494 18.553,18.972 C 18.553,-1.949 10.247,6.545 0,6.545"
         style="display:inline;fill:#1c1d1d;fill-opacity:1;fill-rule:nonzero;stroke:none"
         id="path5757"
         transform="matrix(0.86566314,0,0,-0.86566306,104.31797,84.050724)" />
    </g>
  </g>
</svg>
