<svg xmlns="http://www.w3.org/2000/svg" xmlns:xlink="http://www.w3.org/1999/xlink">
<defs>
    <symbol id="logo" viewBox="0 0 57.231501 66.145484" bordercolor="#000000" >
    

    <g id="A" transform="translate(-63.147122,-45.085325)">
    <path d="m 0,0 h -9.579 l -13.356,-36.138 h 6.499 0.058 l 3.154,8.535 H 3.645 l 3.154,-8.535 h 0.057 6.498 z m -10.998,-21.581 6.208,16.8 6.209,-16.8 z" transform="matrix(0.86566314,0,0,-0.86566306,83.001106,45.085325)" />
    </g>

    <g id="E" transform="translate(-63.147122,-45.085325)">
    <path d="M 0,0 H 20.346 V -5.999 H 0 -6.213 V 30.139 H 19.381 L 20.346,24.3 H 0 V 15.998 H 16.381 V 9.999 H 0 Z" transform="matrix(0.86566314,0,0,-0.86566306,100.66258,71.175197)" />
    </g>

    <g id="3" transform="translate(-63.147122,-45.085325)">
    <path
    d="M 0,0 C -0.601,1.259 -1.397,2.325 -2.367,3.171 -3.335,4.016 -4.472,4.65 -5.744,5.058 -6.428,5.275 -7.122,5.433 -7.818,5.537 l 8.314,9.242 v 6.017 h -27.299 l 0.993,-6.017 h 17.102 l -7.152,-7.975 0.01,-5.902 h 3.76 c 1.92,0 3.54,-0.454 4.814,-1.35 1.349,-0.952 2.033,-2.456 2.033,-4.471 0,-1.862 -0.619,-3.394 -1.84,-4.551 -1.211,-1.147 -2.935,-1.728 -5.124,-1.728 -2.551,0 -4.508,0.75 -5.819,2.228 -1.288,1.453 -1.94,3.199 -1.94,5.191 v 1.363 h -6.146 V -4.12 c 0,-1.726 0.328,-3.381 0.972,-4.923 0.645,-1.544 1.584,-2.927 2.786,-4.108 1.202,-1.185 2.687,-2.132 4.414,-2.816 1.739,-0.686 3.708,-1.035 5.85,-1.035 2.108,0 4.003,0.311 5.628,0.925 1.612,0.609 2.981,1.451 4.069,2.502 1.08,1.044 1.906,2.294 2.458,3.716 0.556,1.434 0.838,3.02 0.838,4.712 v 0.684 C 0.903,-2.752 0.6,-1.25 0,0"
    transform="matrix(0.86566314,0,0,-0.86566306,86.349577,96.512808)" />
    </g>

    <g id="0" transform="translate(-63.147122,-45.085325)">
    <path
    d="m 0,0 c 6.622,0 12.008,-5.574 12.008,-12.426 0,-6.852 -5.386,-12.427 -12.008,-12.427 -6.621,0 -12.008,5.575 -12.008,12.427 C -12.008,-5.574 -6.621,0 0,0 m 0,6.545 c -10.246,0 -18.553,-8.494 -18.553,-18.971 0,-10.478 8.307,-18.972 18.553,-18.972 10.247,0 18.553,8.494 18.553,18.972 C 18.553,-1.949 10.247,6.545 0,6.545"
    transform="matrix(0.86566314,0,0,-0.86566306,104.31797,84.050724)" />
    </g>



    </symbol>

</defs>
</svg>
